<svg xmlns="http://www.w3.org/2000/svg" width="24" height="24" id="categories">
  <path fill="none" d="M0 0h24v24H0Z"></path>
  <path fill="#000000" d="M15.278 20.72a3.086 3.086 0 0 1-.621-.9H8.409a2.706 2.706 0 0 1-2.7-2.7V8.267a3 3 0 0 1 .895-5.865 3 3 0 0 1 .908 5.859v1.951h7.025a2.99 2.99 0 1 1 .006 1.8H7.512v5.106a.9.9 0 0 0 .9.9h6.047a3 3 0 1 1 .822 2.7Zm.922-2.121a1.2 1.2 0 1 0 1.2-1.2 1.2 1.2 0 0 0-1.2 1.197Zm0-7.5a1.2 1.2 0 1 0 1.2-1.2 1.2 1.2 0 0 0-1.2 1.197Zm-10.8-5.7a1.2 1.2 0 1 0 1.2-1.2 1.2 1.2 0 0 0-1.2 1.197Z"></path>
</svg>
